<?xml version="1.0" encoding="UTF-8"?>
<svg data-name="Layer 1" viewBox="0 0 325 450" xmlns="http://www.w3.org/2000/svg">
 <defs>
  <style>.cls-1{fill:#9cd0c7;}.cls-2{fill:#66462a;}.cls-3{fill:#babd4a;}.cls-4{fill:#c42228;}.cls-5{fill:#c7e7df;}.cls-6{fill:#e2e2e2;}.cls-7{fill:#ed7f33;}.cls-8{fill:#fbce5f;}.cls-9{fill:#9f2023;}</style>
 </defs>
 <path class="cls-1" d="m214.36 167.51c-1.75 7.35-9.21 12.78-16.56 11.58-31.15-1.24-62.36-2.87-93.54-3.63-7.41 0.7-14.91-4.95-16.65-12.16q-2.61-11.11-5.23-21.51c-1.69-6.71 2.77-14.91 10-18.23 38.87-12.21 80.28-14.14 119.17-3.65 7.26 3 11.75 11 10.06 17.68-2.38 9.5-4.8 19.5-7.25 29.92z"/>
 <path class="cls-2" d="m232 223.43c-1.76 6.22-8.24 10.67-14.38 9.54-44.42-1.45-88.93-3.58-133.38-4.21-6.19 0.83-12.7-3.74-14.45-9.82-2.82-9.9-5.61-19.35-8.34-28.3-1.69-5.48 1.81-12.28 7.82-15.25 53.91-17.66 111.83-20.16 165.76-4.08 6 2.8 9.57 9.48 7.88 14.92-3.6 11.57-7.25 24.03-10.91 37.2z"/>
 <path class="cls-3" d="m253.74 284c-2.2 6.07-9 10.37-15 9.17-54 0-108 0.36-162 0.61-6 1.24-12.8-3.06-15-9.14-5.09-14.17-10.11-27.34-15-39.28-2.12-5.1 1-11.66 6.86-14.83a330.43 330.43 0 0 1 207.85 0.57c5.89 3.18 9 9.75 6.86 14.86-4.77 11.56-9.64 24.31-14.57 38.04z"/>
 <path class="cls-4" d="m284.06 347.28a12.12 12.12 0 0 1 -13.48 10.48c-71 0.36-142.1 4-213 6.11a12.05 12.05 0 0 1 -13.73 -10.22q-4-25.81-7.78-49.81c-1-6.16 3.43-13.63 9.83-16.56 75.72-23.09 157.2-19.64 232.92 5.22 6.37 3.08 10.9 10.72 10.11 17q-2.4 18.43-4.87 37.78z"/>
 <ellipse class="cls-5" cx="161.66" cy="355.15" rx="148.84" ry="16.51"/>
 <ellipse class="cls-5" cx="161.66" cy="403.76" rx="33.07" ry="22.12"/>
 <ellipse class="cls-5" cx="161.66" cy="415.04" rx="67.13" ry="10.85"/>
 <rect class="cls-5" x="143.24" y="371.66" width="36.85" height="13.75"/>
 <circle class="cls-6" cx="113.29" cy="143.48" r="11.11"/>
 <circle class="cls-6" cx="154.14" cy="134.48" r="11.11"/>
 <circle class="cls-6" cx="192.37" cy="143.48" r="11.11"/>
 <path class="cls-7" d="M119.93,121.83q-6.33.75-12.56,2.09L96.86,75.09q8.53-1.84,17.2-2.86Z"/>
 <polygon class="cls-8" points="113.74 67.97 102.81 64.89 94.08 72.16 93.62 60.81 84.01 54.75 94.67 50.81 97.46 39.8 104.5 48.71 115.83 47.97 109.53 57.42"/>
 <path class="cls-3" d="M158.15,116.63q-6.37-.13-12.73.33l-3.66-49.82q8.7-.64,17.43-0.46Z"/>
 <polygon class="cls-8" points="160.75 60.94 150.47 56.12 140.66 61.86 142.07 50.59 133.58 43.04 144.73 40.9 149.29 30.49 154.78 40.43 166.08 41.55 158.32 49.84"/>
 <path class="cls-9" d="M198.64,120.65q-6.31-.85-12.68-1.11l2-49.91q8.72,0.35,17.37,1.51Z"/>
 <polygon class="cls-8" points="206.62 67.9 197.57 61.03 186.78 64.59 190.52 53.86 183.81 44.7 195.16 44.94 201.8 35.72 205.08 46.6 215.9 50.06 206.57 56.54"/>
 <circle class="cls-6" cx="72.07" cy="260.3" r="6.32"/>
 <circle class="cls-6" cx="202.5" cy="250.3" r="6.32"/>
 <circle class="cls-6" cx="169.89" cy="246.3" r="6.32"/>
 <circle class="cls-6" cx="137.29" cy="247.3" r="6.32"/>
 <circle class="cls-6" cx="104.68" cy="252.3" r="6.32"/>
 <circle class="cls-6" cx="235.11" cy="253.98" r="6.32"/>
</svg>
