<?xml version='1.0' encoding='utf-8'?>
<svg xmlns="http://www.w3.org/2000/svg" version="1.1" width="600px" height="976px" viewBox="0 0 600 976"> <g id="layer1"> <g style="fill:rgb(0,0,0); fill-opacity:1.0; stroke-linejoin: miter"> <path d="M173.63232,321.74167Q173.6331,321.74167,173.63388,321.74167L173.63077,321.74167Q173.63155,321.74167,173.63232,321.74167 Z M172.73895,411.6838Q172.73897,411.6838,172.73897,411.6838L172.73723,411.6838Q172.73723,411.6838,172.73723,411.6838L172.73723,411.6838Q172.73723,411.6838,172.73723,411.6838 Z M238.91228,461.60306L239.843,462.3621L239.06186,462.86356L238.91258,461.6056L238.91228,461.60306 Z M205.48592,506.57202L205.72891,506.58102L205.83185,508.01523L205.83185,508.01523L205.72891,506.58102L205.48592,506.57202L205.48386,506.57202Q205.48386,506.57202,205.48386,506.57202 Z M205.83432,508.02087Q205.83432,508.02087,205.83432,508.02087L205.83226,508.02087L205.83226,508.02087 Z M322.32593,509.0466Q323.46136,509.0466,324.57007,509.16434L324.57,509.16434Q323.46136,509.0466,322.32593,509.0466Q321.19052,509.0466,320.02832,509.16434L320.02826,509.16434Q321.19046,509.0466,322.32593,509.0466 Z M299.5672,509.16434Q299.85876,509.16434,300.315,509.33234L300.31497,509.33234Q299.85876,509.16434,299.5672,509.16434Q299.27563,509.16434,299.1487,509.33234Q299.27563,509.16434,299.5672,509.16434 Z M297.53766,517.3175Q297.53848,517.3175,297.53934,517.3175L297.53363,517.3175Q297.53415,517.3175,297.53467,517.3175 Z M244.21704,468.74066L292.35977,521.29614L291.5191,522.2942L289.496,520.2544L243.18686,469.82764L244.16058,468.7977L244.21704,468.74066 Z M250.12271,561.13904Q250.22267,561.13904,250.31363,561.1432L250.31354,561.1432Q250.22261,561.13904,250.12271,561.13904Q250.0228,561.13904,249.91391,561.1432Q250.0228,561.13904,250.12271,561.13904 Z M183.93373,572.05475L183.93373,572.05475Q183.93277,572.05475,183.93182,572.05475Q183.93088,572.05475,183.92992,572.05475 Z M355.42404,588.8419L355.42404,588.8419Q355.41492,588.8419,355.40573,588.8419Q355.39658,588.8419,355.38736,588.8419 Z M362.25705,593.5313L362.25705,593.5313Q362.2495,593.5313,362.242,593.5313Q362.23447,593.5313,362.22696,593.5313 Z M362.93594,593.54L362.93594,593.54Q362.9434,593.54004,362.95084,593.54004Q362.95828,593.54004,362.96573,593.54L362.96936,593.54Q362.96008,593.54004,362.95084,593.54004Q362.94156,593.54004,362.9323,593.54 Z M173.8164,320.89822Q170.56015,320.89822,163.55156,327.26895Q160.37964,330.1429,159.79053,334.49576Q159.01662,338.37344,159.53818,350.0802Q159.68382,350.4216,159.85191,350.4216Q160.12263,350.4216,160.45157,349.5359Q160.7752,353.3668,161.99658,355.37302Q166.25475,364.07758,167.88005,364.07758Q168.02081,364.07758,168.14182,364.0123L169.10895,368.15836L162.08255,372.72495Q161.00032,373.5692,160.37831,375.84647Q159.23338,384.0551,161.44507,393.75275L160.48726,403.31073Q155.52068,399.69604,151.57999,393.8967L152.00652,392.00867Q151.5564,391.29532,149.99638,390.56863Q149.90192,386.18442,148.76161,384.33603Q147.87862,382.72046,144.22462,382.50204L139.94255,375.96646L132.97614,376.54898Q132.92238,376.54434,132.87338,376.54434Q132.30193,376.54434,132.37846,377.1758L134.85626,381.8199Q132.55736,384.12756,133.09726,384.74054Q133.19481,385.85318,135.68799,387.93893L134.89539,390.79755Q135.38042,391.85522,136.42413,391.99716Q136.28407,393.93112,136.81476,394.59644L140.10306,398.34625L146.39818,399.56738L154.6877,414.20193Q156.93094,417.46497,160.74388,420.59897Q164.728,423.78726,166.86743,423.78726Q167.45088,423.78726,167.89714,423.55014Q173.72928,420.13513,173.60469,412.4755L173.60641,412.4755L176.89047,413.5Q177.87311,414.77124,179.07318,418.2895Q182.88156,429.4571,182.74887,432.72125Q183.39818,434.46463,184.19792,434.66733L190.34761,453.80402Q187.58281,463.28546,186.09653,491.38196Q185.53418,505.22202,185.9111,508.54135L188.36607,520.40826L187.13037,530.9989Q187.76558,547.2709,187.26689,551.8904Q186.95432,557.86707,185.27545,565.52747Q184.99548,565.9916,185.92792,566.7019L183.90588,570.99835Q183.21489,570.8816,182.79068,570.8816Q182.04202,570.8816,182.12427,571.24524Q176.5422,578.5338,173.63565,581.10376Q170.77866,584.05835,165.52823,584.05835Q164.93132,584.05835,164.30348,584.02014Q163.04518,584.6697,162.77074,587.3093Q162.58472,590.9733,164.27538,592.6371Q173.71605,593.8141,177.21555,593.8141Q177.26512,593.8141,177.31349,593.81384Q177.53752,593.81665,177.75516,593.81665Q181.38477,593.81665,183.23453,593.0426L190.11604,588.845L190.4668,593.532L190.92967,593.7682L203.46008,593.51636Q203.58212,593.54584,203.68492,593.54584Q204.1135,593.54584,204.20767,593.034Q203.52979,587.7097,204.42596,578.0541Q204.7142,576.7561,201.43553,572.64185Q200.88145,571.55066,200.96455,568.952Q201.57254,553.84186,208.06738,533.5704L206.92216,511.45807L206.92424,511.45807Q211.18689,518.1673,223.02808,528.42554L228.22748,535.3749L240.90988,549.9026L249.34987,561.80054L250.65018,562.2512L254.7139,568.94977Q253.49846,570.8247,254.25514,570.8247Q254.26054,570.8247,254.26605,570.8246Q262.03864,578.55066,262.88757,581.1609Q264.05505,582.6242,261.3817,588.7634Q261.32672,590.23773,262.99518,592.02405Q264.91214,593.04755,266.66074,593.04755Q272.44888,593.04755,276.39203,581.83276Q278.9769,578.4457,273.18906,567.8901L273.19177,567.8901L278.8509,567.9791L280.40735,555.30054L267.24695,551.82654L261.2899,552.1052L259.35013,550.3523Q256.92007,548.5426,244.93942,524.8456Q227.25903,507.79352,228.11797,505.2799L223.67828,466.12054Q231.43277,455.59558,228.6992,445.76242L228.70149,445.76242L231.35913,451.98553Q230.57239,456.21954,231.48712,458.27866L235.25026,463.84766Q235.92235,465.5341,234.86542,469.04126L235.21384,468.9185L235.14935,469.29315Q235.23291,469.28876,235.31842,469.28876Q236.66136,469.28876,238.48718,470.37466L246.43283,478.56894Q267.2254,503.19635,287.5437,524.5932L288.80414,526.2361Q287.35828,529.4005,288.4101,531.8561Q289.163,534.09357,291.45764,536.67633L327.51184,571.53516L339.7738,586.9852Q339.83923,587.33417,340.1828,587.33417Q340.48895,587.33417,341.01593,587.0571Q341.24442,589.28357,342.95135,590.67456Q344.23343,591.86237,346.54956,591.86237Q346.89047,591.86237,347.25378,591.8366Q349.39966,591.70886,350.92706,589.2749Q354.1871,589.69385,355.66776,589.69385Q356.86765,589.69385,356.89893,589.4187Q358.517,594.3321,362.37857,594.3321Q363.5218,594.3321,364.86163,593.9014L382.0819,576.95496L383.43616,576.9691L388.9241,570.726Q389.00064,570.0846,388.40042,570.0846Q388.3633,570.0846,388.3236,570.08704L382.99655,569.0762L382.25385,567.09204Q385.60358,564.06287,384.1269,562.3656Q380.32376,556.23065,376.25116,552.1312Q371.10712,546.3615,332.9032,511.32477Q327.93625,508.2096,322.23523,508.2096Q315.29575,508.2096,307.26862,512.8252Q301.1681,508.21573,299.46698,508.21573Q299.02448,508.21573,298.87967,508.52765Q296.48148,509.18298,295.0335,512.5023Q294.2591,514.25635,296.5078,517.3692Q296.6413,517.59106,295.63193,518.4586L248.98251,468.33408L249.06587,466.99945L245.56575,463.21832Q246.66147,458.91556,245.24463,457.04016Q237.763,450.38876,237.63434,448.74893Q236.362,446.18283,234.48566,437.9703Q247.14514,427.81302,247.52022,421.02002Q247.94583,418.29272,246.29822,413.71313L238.52727,397.73654Q229.18362,385.86783,220.83183,381.34952Q224.73865,378.65805,222.36935,376.41214Q221.38257,375.91086,220.72113,375.91086Q220.26195,375.91086,219.95956,376.15244L213.89867,380.84274Q204.54971,369.2492,201.67372,367.46088L185.53627,360.58163Q184.7543,360.10925,185.11249,353.14935Q191.56537,352.11923,191.17609,333.16702Q190.31175,329.65042,186.9785,326.65292Q185.74773,325.47006,183.4519,325.47006Q183.09619,325.47006,182.7149,325.49844Q179.13531,321.12234,174.54663,320.94742L174.3465,320.94492Q174.0952,320.89822,173.8164,320.89822 Z"/> </g> </g> </svg>