<?xml version='1.0' encoding='utf-8'?>
<svg xmlns:xlink="http://www.w3.org/1999/xlink" xmlns="http://www.w3.org/2000/svg" width="210mm" height="297mm" id="svg2" version="1.1"> <defs id="defs4"> <linearGradient id="linearGradient3005"> <stop style="stop-color:#ffe800;stop-opacity:1;" offset="0" id="stop3007"/> <stop style="stop-color:#ff6600;stop-opacity:1;" offset="1" id="stop3009"/> </linearGradient> <radialGradient xlink:href="#linearGradient3005" id="radialGradient3011" cx="-865.90808" cy="747.32013" fx="-865.90808" fy="747.32013" r="350" gradientUnits="userSpaceOnUse" gradientTransform="matrix(1.2335616,-5.4455058e-8,5.5745613e-8,1.2627963,1058.4873,-151.43502)"/> </defs> <metadata id="metadata7"> </metadata> <g id="layer1"> <g id="g2989"> <rect y="3.9992667e-014" x="5.5816463e-014" height="1052.3622" width="744.09448" id="rect3000" style="fill:url(#radialGradient3011);fill-opacity:1;fill-rule:nonzero;stroke:none"/> <path id="path3002" d="m 0,657.63261 c 82.32276,0 149.05854,66.73578 149.05853,149.05854 0,82.32275 -66.73577,149.05853 -149.05852,149.05853 L 0,806.69115 z" style="fill:#ffeeaa;fill-opacity:1;fill-rule:nonzero;stroke:none"/> <path id="path2996" d="M 274.8125 251.875 C 273.75284 251.8456 273.03014 252.18099 273.1875 254.0625 C 273.43924 257.07293 277.95994 270.84895 279.21875 278.375 C 280.47758 285.90106 288.80722 334.33678 289.5625 345.375 C 290.3178 356.41319 294.59375 391.2769 294.59375 401.5625 C 294.59375 411.8481 298.37677 462.29078 298.125 468.5625 C 297.87325 474.83422 298.375 490.125 298.375 490.125 C 298.375 490.125 296.09728 490.86805 295.59375 492.875 C 295.09024 494.88196 295.59375 502.92968 295.59375 505.1875 C 295.59375 507.44531 295.35606 511.95745 293.59375 515.21875 C 291.83141 518.48002 287.04358 524.49652 285.28125 525.5 C 283.51893 526.50347 278.47405 528.4922 277.71875 530.75 C 276.96349 533.00781 274.9375 535.28125 274.9375 535.28125 C 274.9375 535.28125 271.67211 525.98264 269.40625 521.96875 C 267.14041 517.95487 259.58011 505.16494 257.0625 502.65625 C 254.54485 500.14756 252.04004 493.13282 250.78125 490.875 C 249.52244 488.61719 249.28125 484.59375 249.28125 484.59375 L 249.53125 480.09375 C 249.53125 480.09375 253.80897 479.08333 254.3125 482.09375 C 254.816 485.10416 253.0625 489.125 253.0625 489.125 C 253.0625 489.125 256.56073 485.84809 256.8125 484.59375 C 257.06427 483.33941 254.5625 477.84375 254.5625 477.84375 C 254.5625 477.84375 258.84375 480.3342 258.84375 483.09375 C 258.84375 485.8533 259.34375 490.125 259.34375 490.125 C 259.34375 490.125 262.10079 482.85243 261.09375 480.34375 C 260.08671 477.83505 255.3125 473.5625 255.3125 473.5625 C 255.3125 473.5625 256.58318 472.80991 258.09375 473.5625 C 259.60433 474.3151 262.12148 476.58941 262.625 477.84375 C 263.12853 479.09811 264.375 483.09375 264.375 483.09375 C 264.375 483.09375 265.13557 476.81684 263.625 475.5625 C 262.11444 474.30815 255.5625 469.0625 255.5625 469.0625 C 255.5625 469.0625 257.58494 470.31511 258.84375 469.5625 C 260.10257 468.80991 257.84375 465.28125 257.84375 465.28125 C 257.84375 465.28125 261.86971 469.80642 262.625 471.5625 C 263.38028 473.31859 264.39217 477.34288 266.40625 477.59375 C 268.42035 477.8446 271.9375 477.59375 271.9375 477.59375 C 271.9375 477.59375 267.41332 474.31857 266.40625 472.5625 C 265.39921 470.80641 264.63555 465.53472 263.125 464.53125 C 261.61444 463.52776 260.84375 460.53125 260.84375 460.53125 L 262.375 458.75 L 267.90625 461.03125 C 267.90625 461.03125 269.40801 465.52692 269.15625 466.78125 C 268.9045 468.0356 267.40625 469.8125 267.40625 469.8125 C 267.40625 469.8125 270.68573 469.03731 270.9375 467.28125 C 271.18926 465.52517 270.40625 462.53125 270.40625 462.53125 C 270.40625 462.53125 275.96698 465.27343 276.21875 467.53125 C 276.4705 469.78906 272.6875 476.8125 272.6875 476.8125 C 272.6875 476.8125 278.71875 470.78992 278.71875 468.28125 C 278.71875 465.77257 270.9375 459.78125 270.9375 459.78125 L 271.4375 456.5 C 271.4375 456.5 276.2117 454.99131 277.21875 457.5 C 278.22578 460.00869 276.96875 462.53125 276.96875 462.53125 C 276.96875 462.53125 281.22931 459.5078 279.71875 457.25 C 278.20818 454.99216 277.46875 454.75 277.46875 454.75 C 277.46875 454.75 278.72931 452.50346 277.21875 451.5 C 275.70816 450.4965 274.9375 449.96875 274.9375 449.96875 L 274.9375 445.46875 C 274.9375 445.46875 276.71875 444.1988 276.71875 440.9375 C 276.71875 437.67622 274.94454 433.94012 273.9375 433.1875 C 272.93045 432.43491 271.4375 431.15625 271.4375 431.15625 C 271.4375 431.15625 272.68927 429.66233 272.4375 427.90625 C 272.18574 426.15017 270.40625 425.15625 270.40625 425.15625 C 270.40625 425.15625 271.93573 424.37934 272.1875 423.125 C 272.43926 421.87067 272.4375 419.625 272.4375 419.625 C 272.4375 419.625 274.45642 418.36806 276.21875 420.375 C 277.98106 422.38196 279.21875 427.90625 279.21875 427.90625 C 279.21875 427.90625 279.23106 419.3802 277.46875 417.875 C 275.7064 416.36979 272.4375 416.375 272.4375 416.375 C 272.4375 416.375 273.44806 415.09723 271.9375 414.09375 C 270.42692 413.09028 267.40625 412.59375 267.40625 412.59375 C 267.40625 412.59375 263.86842 407.82205 260.34375 405.0625 C 256.81911 402.30294 246.76762 399.06423 244.25 398.5625 C 241.73239 398.06074 229.64438 398.30555 226.875 400.3125 C 224.10563 402.31944 214.26234 411.59028 212.5 412.59375 C 210.73767 413.59724 198.41859 420.86894 196.65625 422.625 C 194.89392 424.38108 188.09375 432.9375 188.09375 432.9375 C 188.09375 432.9375 199.42694 422.62847 200.9375 421.625 C 202.44807 420.62153 209.25 417.875 209.25 417.875 C 209.25 417.875 206.72226 421.11894 206.21875 422.875 C 205.71522 424.63108 204.96875 428.40625 204.96875 428.40625 C 204.96875 428.40625 203.69101 430.15104 203.1875 431.65625 C 202.68397 433.16146 202.1875 436.9375 202.1875 436.9375 C 202.1875 436.9375 200.91858 439.18661 199.15625 439.4375 C 197.39394 439.68836 192.37854 440.21179 191.875 442.21875 C 191.3715 444.2257 192.125 450.21875 192.125 450.21875 C 192.125 450.21875 193.61793 443.97137 194.625 443.21875 C 195.63203 442.46616 200.4375 441.46875 200.4375 441.46875 C 200.4375 441.46875 199.15625 444.46354 199.15625 445.96875 C 199.15625 447.47397 200.9375 449.71875 200.9375 449.71875 C 200.9375 449.71875 196.63733 449.99566 194.875 451.25 C 193.11269 452.50434 189.84728 458.77432 189.34375 460.78125 C 188.84023 462.78821 189.84375 466.53125 189.84375 466.53125 C 189.84375 466.53125 193.1215 460.25783 193.625 458 C 194.12854 455.74221 193.125 462.77517 193.125 464.53125 C 193.125 466.28731 193.375 470.3125 193.375 470.3125 C 193.375 470.3125 190.6008 470.80641 189.59375 472.5625 C 188.58672 474.31857 188.84375 483.84375 188.84375 483.84375 L 185.8125 486.875 L 189.59375 486.09375 L 190.34375 488.625 L 190.875 485.09375 L 195.65625 482.34375 L 195.65625 486.34375 C 195.65625 486.34375 194.38557 486.36979 192.875 487.875 C 191.36443 489.3802 190.625 493.375 190.625 493.375 C 190.625 493.375 192.61619 489.375 193.875 489.375 C 195.1338 489.375 198.40625 488.625 198.40625 488.625 C 198.40625 488.625 198.17209 490.61807 195.90625 492.625 C 193.64038 494.63196 190.09375 495.65625 190.09375 495.65625 L 195.15625 495.65625 C 195.15625 495.65625 195.1492 498.65364 196.15625 499.40625 C 197.1633 500.15884 201.1875 502.40625 201.1875 502.40625 C 201.1875 502.40625 199.16987 528.50435 201.6875 536.28125 C 204.20511 544.05818 214.2896 569.13716 217.5625 574.65625 C 220.8354 580.17535 225.59375 593.24131 225.59375 604.78125 C 225.59375 616.32119 222.07002 626.10069 216.53125 633.125 C 210.9925 640.14933 203.44981 655.44965 201.6875 660.96875 C 198.12597 668.20165 201.08743 680.30536 207.71875 686.0625 C 206.96347 687.56771 206.22052 709.11544 205.96875 720.90625 C 205.71699 732.69706 206.22758 748.7639 204.96875 753.78125 C 203.70995 758.79863 201.1875 766.59375 201.1875 766.59375 C 201.1875 766.59375 198.16329 769.8342 197.15625 772.59375 C 196.1492 775.35329 196.91859 778.3637 195.15625 781.625 C 193.39392 784.88628 182.55415 801.19965 179.28125 806.71875 C 176.00834 812.23784 171.73283 823.78731 169.71875 831.0625 C 167.70466 838.33768 160.39438 861.41753 157.625 867.1875 C 154.85563 872.95747 154.61665 875.45486 151.34375 879.46875 C 148.07084 883.48264 143.52467 887.49305 140 889.5 C 136.47534 891.50694 133.7205 894.76996 133.46875 898.03125 C 133.39672 898.96425 133.48874 899.81707 133.6875 900.65625 C 128.65749 898.11149 123.125 894.71875 123.125 894.71875 C 123.125 894.71875 129.39852 887.21692 135.65625 886.28125 C 141.91398 885.3456 145.03667 876.46322 140.65625 873.65625 C 136.27585 870.84928 125.62887 872.71506 122.5 870.84375 C 119.37114 868.97243 127.53434 862.43197 125.03125 859.625 C 122.52816 856.81803 105.63117 848.84468 100.625 849.3125 C 95.618812 849.78034 84.349158 852.11947 79.96875 849.3125 C 75.588343 846.50554 76.838341 841.84191 81.21875 840.90625 C 85.599157 839.97059 84.352247 831.09191 77.46875 830.15625 C 70.585252 829.2206 61.19368 831.09006 56.1875 829.21875 C 51.181319 827.34743 50.538975 816.59006 44.28125 814.71875 C 38.023524 812.84744 24.882725 807.21875 18.625 807.21875 C 12.367274 807.21875 8.0092705 813.78125 0.5 813.78125 L 0.5 1052.375 L 484.84375 1052.375 C 484.84375 1052.375 472.94292 1039.2482 468.5625 1038.3125 C 464.18211 1037.3769 457.91475 1029.9081 451.03125 1030.8438 C 444.14776 1031.7794 440.41011 1035.0625 437.28125 1035.0625 C 434.15238 1035.0625 421.62963 1034.1213 417.875 1032.25 C 414.12036 1030.3787 407.85225 1025.2142 400.96875 1022.875 C 394.08525 1020.5359 396.50849 1022.4062 389.625 1022.4062 C 382.7415 1022.4062 357.71797 1015.8705 358.34375 1013.5312 C 358.96953 1011.1921 380.23918 1013.0569 389 1010.25 C 397.76081 1007.443 400.28434 991.55882 397.78125 989.6875 C 395.27817 987.81618 381.5054 983.11486 377.125 977.96875 C 372.74459 972.82263 380.87809 970.02664 378.375 967.6875 C 375.8719 965.34837 368.97108 966.2748 367.09375 963 C 365.21644 959.72521 367.72339 956.93382 363.96875 955.0625 C 360.21412 953.19119 352.72339 956.92736 348.96875 951.78125 C 345.21412 946.63513 343.94677 939.62223 336.4375 938.21875 C 334.75322 937.90396 331.11073 937.58019 326.65625 937.25 C 326.75163 936.91019 326.8125 936.53841 326.8125 936.15625 L 326.8125 933.65625 C 326.8125 933.65625 333.85386 930.40535 336.875 930.65625 C 339.89615 930.90715 344.95112 934.15535 347.46875 934.40625 C 349.98636 934.65705 352.24647 935.16495 352.75 932.65625 C 353.25354 930.14755 349.47403 923.62934 348.71875 922.375 C 347.96346 921.12068 341.68093 913.57465 338.15625 910.0625 C 334.63159 906.55034 329.34375 902.5625 329.34375 902.5625 L 331.34375 873.9375 C 331.34375 873.9375 339.41063 871.20224 347.71875 875.96875 C 356.0269 880.73525 357.01364 891.24654 359.53125 892.25 C 362.04888 893.25347 365.58495 891.51302 366.84375 887.75 C 368.10256 883.98698 367.33541 873.70576 364.0625 868.4375 C 360.78961 863.16927 353.99692 854.88629 349.96875 851.625 C 345.94057 848.36371 334.125 841.34375 334.125 841.34375 C 334.125 841.34375 340.15452 739.73264 340.40625 726.6875 C 340.65802 713.64234 341.40625 649.91928 341.40625 637.125 C 341.40625 624.33073 340.40625 570.40972 340.40625 560.375 C 340.40625 550.34027 338.40625 512.1875 338.40625 512.1875 C 338.40625 512.1875 343.18576 512.44708 343.4375 509.6875 C 343.68926 506.92796 341.65625 505.6875 341.65625 505.6875 C 341.65625 505.6875 343.4375 503.40971 343.4375 502.40625 C 343.4375 501.40276 341.90625 499.15625 341.90625 499.15625 C 341.90625 499.15625 343.1875 498.66493 343.1875 496.15625 C 343.1875 493.64757 339.65625 493.625 339.65625 493.625 C 339.65625 493.625 343.94629 492.8828 342.6875 490.625 C 341.42869 488.36716 337.90625 487.625 337.90625 487.625 C 337.90625 487.625 333.60255 439.44533 332.34375 428.15625 C 331.08494 416.86716 321.51585 352.90976 319.25 342.875 C 316.98416 332.84028 310.94149 308.25695 305.90625 297.21875 C 300.87103 286.18054 292.06472 264.32729 287.28125 260.0625 C 282.49778 255.79774 278.98284 252.0625 276.96875 252.0625 C 276.21346 252.0625 275.4483 251.89264 274.8125 251.875 z M 301.875 554.09375 C 301.875 554.09375 302.15448 641.13281 302.40625 647.90625 C 302.65799 654.6797 304.15448 704.8507 304.40625 711.875 C 304.65801 718.89932 305.65449 776.85241 305.90625 783.375 C 306.15801 789.89756 306.40625 837.31944 306.40625 844.34375 C 306.40625 851.36805 308.4322 929.14935 309.1875 931.15625 C 309.56513 932.1597 310.39943 934.33691 311.375 936.3125 C 297.57485 935.61644 282.77147 935.1478 278.96875 935.40625 C 272.08525 935.87407 253.28744 933.99632 248.28125 932.125 C 246.69041 931.53034 244.30848 929.91337 241.5625 927.875 C 242.3842 927.45416 242.96875 927.125 242.96875 927.125 C 242.96875 927.125 233.16153 920.3559 232.40625 916.84375 C 231.65095 913.33158 229.36973 886.23785 230.125 880.71875 C 230.8803 875.19965 238.71168 848.10156 239.71875 836.8125 C 240.72579 825.52342 241.21701 816.5165 241.46875 811.75 C 241.72052 806.98353 244.23238 801.20834 246.75 795.1875 C 249.26761 789.16666 253.8037 782.88976 255.0625 778.625 C 256.32131 774.36024 255.83144 765.82988 257.59375 760.8125 C 259.35608 755.79515 262.36442 744.99914 263.875 736.21875 C 265.38557 727.43836 269.65272 703.59897 270.15625 693.0625 C 270.65975 682.52602 270.9375 661.22655 270.9375 658.96875 C 270.9375 656.71092 273.95643 649.16579 275.71875 646.40625 C 277.4811 643.64669 281.75 632.3698 281.75 624.84375 C 281.75 617.31769 278.97228 610.04426 278.46875 606.28125 C 277.96522 602.51824 275.96875 577.1875 275.96875 577.1875 C 275.96875 577.1875 286.04313 569.13542 288.8125 566.125 C 291.58188 563.11458 297.36972 555.84637 298.125 555.09375 C 298.88029 554.34116 301.875 554.09375 301.875 554.09375 z M 207.46875 824.78125 C 207.46875 824.78125 207.71523 862.90798 208.21875 871.4375 C 208.72227 879.96703 208.48459 896.79253 206.21875 902.5625 C 204.30138 907.44505 202.91837 911.7381 201.625 913.71875 C 198.58555 914.19977 195.84425 914.47323 193.84375 913.875 C 189.01163 912.43 177.5279 909.6084 170.5 907.3125 C 170.60163 904.27777 170.8603 901.20645 171.46875 898.78125 C 172.72758 893.7639 175.74777 880.46702 180.53125 871.9375 C 185.31472 863.40797 193.13688 848.35676 195.90625 844.59375 C 198.67562 840.83071 201.92696 837.3238 203.4375 834.0625 C 204.94807 830.80121 207.46875 824.78125 207.46875 824.78125 z " style="fill:#000000;stroke:none;stroke-width:1px;stroke-linecap:butt;stroke-linejoin:miter;stroke-opacity:1"/> </g> </g> </svg>